ffmpeg started on 2025-03-25 at 15:24:06
Report written to "D:\Convert\FFMetrics\reports\vmaf_report-6.txt"
Log level: 32
Command line:
ffmpeg -hide_banner -nostdin -r 24000/1001 -i "G:\\\xc0\xed\xe8\xec\xe5\\\xce\xed\xe3\xee\xe8\xed\xe3\xe8\\!_35_\xcb\xe5\xf2\xee_2024\\DreamCast\\\xc0\xeb\xff \xe8\xed\xee\xe3\xe4\xe0 \xea\xee\xea\xe5\xf2\xed\xe8\xf7\xe0\xe5\xf2 \xf1\xee \xec\xed\xee\xe9 \xef\xee-\xf0\xf3\xf1\xf1\xea\xe8\\[DC] Roshidere - 06_Telegram_HEVC.mkv" -r 24000/1001 -i "G:\\\xc0\xed\xe8\xec\xe5\\\xce\xed\xe3\xee\xe8\xed\xe3\xe8\\!_35_\xcb\xe5\xf2\xee_2024\\DreamCast\\\xc0\xeb\xff \xe8\xed\xee\xe3\xe4\xe0 \xea\xee\xea\xe5\xf2\xed\xe8\xf7\xe0\xe5\xf2 \xf1\xee \xec\xed\xee\xe9 \xef\xee-\xf0\xf3\xf1\xf1\xea\xe8\\[DC] Roshidere - 06_Telegram.mp4" -lavfi "[0:v]settb=AVTB,setpts=PTS-STARTPTS,format=pix_fmts=yuv420p10,fps=24000/1001,scale=1920:1080:flags=bicubic[main];[1:v]settb=AVTB,setpts=PTS-STARTPTS,format=pix_fmts=yuv420p,fps=24000/1001,scale=1920:1080:flags=bicubic[ref];[main][ref]libvmaf=eof_action=endall:log_path='D\\:/Convert/FFMetrics/logs/vmaf_logfile-6.txt':n_threads=32:pool=Mean:model=version=vmaf_v0.6.1" -f null -
Input #0, matroska,webm, from 'G:\Аниме\Онгоинги\!_35_Лето_2024\DreamCast\Аля иногда кокетничает со мной по-русски\[DC] Roshidere - 06_Telegram_HEVC.mkv':
  Metadata:
    COMPATIBLE_BRANDS: isomiso2avc1mp41
    MAJOR_BRAND     : isom
    MINOR_VERSION   : 512
    ENCODER         : Lavf61.7.100
  Duration: 00:23:46.73, start: -0.021000, bitrate: 997 kb/s
  Stream #0:0: Video: hevc (Main 10), yuv420p10le(tv, bt709, progressive), 1920x1080 [SAR 1:1 DAR 16:9], 23.98 fps, 23.98 tbr, 1k tbn (default)
      Metadata:
        HANDLER_NAME    : VideoHandler
        VENDOR_ID       : [0][0][0][0]
        ENCODER         : Lavc61.19.100 libx265
        BPS             : 800386
        DURATION        : 00:23:46.466708333
        NUMBER_OF_FRAMES: 34201
        NUMBER_OF_BYTES : 142715547
        _STATISTICS_WRITING_APP: mkvpropedit v66.0.0 ('Josie') 64-bit
        _STATISTICS_WRITING_DATE_UTC: 2025-03-21 10:32:13
        _STATISTICS_TAGS: BPS DURATION NUMBER_OF_FRAMES NUMBER_OF_BYTES
  Stream #0:1: Audio: aac (LC), 48000 Hz, stereo, fltp (default)
      Metadata:
        HANDLER_NAME    : SoundHandler
        VENDOR_ID       : [0][0][0][0]
        ENCODER         : Lavc61.19.100 aac
        BPS             : 193349
        DURATION        : 00:23:46.730000000
        NUMBER_OF_FRAMES: 66879
        NUMBER_OF_BYTES : 34482120
        _STATISTICS_WRITING_APP: mkvpropedit v66.0.0 ('Josie') 64-bit
        _STATISTICS_WRITING_DATE_UTC: 2025-03-21 10:32:13
        _STATISTICS_TAGS: BPS DURATION NUMBER_OF_FRAMES NUMBER_OF_BYTES
Input #1, mov,mp4,m4a,3gp,3g2,mj2, from 'G:\Аниме\Онгоинги\!_35_Лето_2024\DreamCast\Аля иногда кокетничает со мной по-русски\[DC] Roshidere - 06_Telegram.mp4':
  Metadata:
    major_brand     : isom
    minor_version   : 512
    compatible_brands: isomiso2avc1mp41
    encoder         : Lavf61.1.100
  Duration: 00:23:46.68, start: 0.000000, bitrate: 3714 kb/s
  Stream #1:0[0x1](und): Video: h264 (High) (avc1 / 0x31637661), yuv420p(tv, bt709, progressive), 1920x1080 [SAR 1:1 DAR 16:9], 3567 kb/s, 23.98 fps, 23.98 tbr, 24k tbn (default)
      Metadata:
        handler_name    : VideoHandler
        vendor_id       : [0][0][0][0]
        encoder         : Lavc61.3.100 h264_qsv
  Stream #1:1[0x2](und): Audio: aac (HE-AACv2) (mp4a / 0x6134706D), 48000 Hz, stereo, fltp, 144 kb/s (default)
      Metadata:
        handler_name    : SoundHandler
        vendor_id       : [0][0][0][0]
Stream mapping:
  Stream #0:0 (hevc) -> settb:default
  Stream #1:0 (h264) -> settb:default
  libvmaf:default -> Stream #0:0 (wrapped_avframe)
  Stream #0:1 -> #0:1 (aac (native) -> pcm_s16le (native))
Output #0, null, to 'pipe:':
  Metadata:
    COMPATIBLE_BRANDS: isomiso2avc1mp41
    MAJOR_BRAND     : isom
    MINOR_VERSION   : 512
    encoder         : Lavf61.7.100
  Stream #0:0: Video: wrapped_avframe, yuv420p10le(tv, bt709, progressive), 1920x1080 [SAR 1:1 DAR 16:9], q=2-31, 200 kb/s, 23.98 fps, 23.98 tbn
      Metadata:
        encoder         : Lavc61.19.100 wrapped_avframe
  Stream #0:1: Audio: pcm_s16le, 48000 Hz, stereo, s16, 1536 kb/s (default)
      Metadata:
        HANDLER_NAME    : SoundHandler
        VENDOR_ID       : [0][0][0][0]
        _STATISTICS_TAGS: BPS DURATION NUMBER_OF_FRAMES NUMBER_OF_BYTES
        BPS             : 193349
        DURATION        : 00:23:46.730000000
        NUMBER_OF_FRAMES: 66879
        NUMBER_OF_BYTES : 34482120
        _STATISTICS_WRITING_APP: mkvpropedit v66.0.0 ('Josie') 64-bit
        _STATISTICS_WRITING_DATE_UTC: 2025-03-21 10:32:13
        encoder         : Lavc61.19.100 pcm_s16le
frame=   39 fps=0.0 q=-0.0 size=N/A time=00:00:01.62 bitrate=N/A speed=3.13x    frame=   82 fps= 80 q=-0.0 size=N/A time=00:00:03.42 bitrate=N/A speed=3.32x    frame=  128 fps= 83 q=-0.0 size=N/A time=00:00:05.33 bitrate=N/A speed=3.45x    frame=  176 fps= 85 q=-0.0 size=N/A time=00:00:07.34 bitrate=N/A speed=3.56x    frame=  223 fps= 86 q=-0.0 size=N/A time=00:00:09.30 bitrate=N/A speed= 3.6x    frame=  267 fps= 86 q=-0.0 size=N/A time=00:00:11.13 bitrate=N/A speed= 3.6x    frame=  313 fps= 87 q=-0.0 size=N/A time=00:00:13.05 bitrate=N/A speed=3.62x    frame=  360 fps= 87 q=-0.0 size=N/A time=00:00:15.01 bitrate=N/A speed=3.64x    frame=  405 fps= 87 q=-0.0 size=N/A time=00:00:16.89 bitrate=N/A speed=3.64x    frame=  452 fps= 88 q=-0.0 size=N/A time=00:00:18.85 bitrate=N/A speed=3.66x    frame=  499 fps= 88 q=-0.0 size=N/A time=00:00:20.81 bitrate=N/A speed=3.67x    frame=  546 fps= 88 q=-0.0 size=N/A time=00:00:22.77 bitrate=N/A speed=3.68x    frame=  594 fps= 89 q=-0.0 size=N/A time=00:00:24.77 bitrate=N/A speed= 3.7x    frame=  641 fps= 89 q=-0.0 size=N/A time=00:00:26.73 bitrate=N/A speed= 3.7x    frame=  688 fps= 89 q=-0.0 size=N/A time=00:00:28.69 bitrate=N/A speed=3.71x    frame=  730 fps= 88 q=-0.0 size=N/A time=00:00:30.44 bitrate=N/A speed=3.69x    frame=  772 fps= 88 q=-0.0 size=N/A time=00:00:32.19 bitrate=N/A speed=3.67x    frame=  813 fps= 88 q=-0.0 size=N/A time=00:00:33.90 bitrate=N/A speed=3.65x    frame=  855 fps= 87 q=-0.0 size=N/A time=00:00:35.66 bitrate=N/A speed=3.64x    frame=  900 fps= 87 q=-0.0 size=N/A time=00:00:37.53 bitrate=N/A speed=3.64x    frame=  945 fps= 87 q=-0.0 size=N/A time=00:00:39.41 bitrate=N/A speed=3.64x    frame=  990 fps= 87 q=-0.0 size=N/A time=00:00:41.29 bitrate=N/A speed=3.64x    frame= 1035 fps= 87 q=-0.0 size=N/A time=00:00:43.16 bitrate=N/A speed=3.64x    frame= 1081 fps= 87 q=-0.0 size=N/A time=00:00:45.08 bitrate=N/A speed=3.64x    frame= 1125 fps= 87 q=-0.0 size=N/A time=00:00:46.92 bitrate=N/A speed=3.64x    frame= 1168 fps= 87 q=-0.0 size=N/A time=00:00:48.71 bitrate=N/A speed=3.63x    frame= 1213 fps= 87 q=-0.0 size=N/A time=00:00:50.59 bitrate=N/A speed=3.63x    frame= 1258 fps= 87 q=-0.0 size=N/A time=00:00:52.46 bitrate=N/A speed=3.63x    frame= 1303 fps= 87 q=-0.0 size=N/A time=00:00:54.34 bitrate=N/A speed=3.63x    frame= 1346 fps= 87 q=-0.0 size=N/A time=00:00:56.13 bitrate=N/A speed=3.63x    frame= 1389 fps= 87 q=-0.0 size=N/A time=00:00:57.93 bitrate=N/A speed=3.62x    frame= 1435 fps= 87 q=-0.0 size=N/A time=00:00:59.85 bitrate=N/A speed=3.63x    frame= 1480 fps= 87 q=-0.0 size=N/A time=00:01:01.72 bitrate=N/A speed=3.63x    frame= 1525 fps= 87 q=-0.0 size=N/A time=00:01:03.60 bitrate=N/A speed=3.63x    frame= 1569 fps= 87 q=-0.0 size=N/A time=00:01:05.44 bitrate=N/A speed=3.63x    frame= 1613 fps= 87 q=-0.0 size=N/A time=00:01:07.27 bitrate=N/A speed=3.62x    frame= 1656 fps= 87 q=-0.0 size=N/A time=00:01:09.06 bitrate=N/A speed=3.62x    frame= 1702 fps= 87 q=-0.0 size=N/A time=00:01:10.98 bitrate=N/A speed=3.62x    frame= 1747 fps= 87 q=-0.0 size=N/A time=00:01:12.86 bitrate=N/A speed=3.62x    frame= 1794 fps= 87 q=-0.0 size=N/A time=00:01:14.82 bitrate=N/A speed=3.63x    frame= 1840 fps= 87 q=-0.0 size=N/A time=00:01:16.74 bitrate=N/A speed=3.63x    frame= 1886 fps= 87 q=-0.0 size=N/A time=00:01:18.66 bitrate=N/A speed=3.63x    frame= 1932 fps= 87 q=-0.0 size=N/A time=00:01:20.58 bitrate=N/A speed=3.63x    frame= 1975 fps= 87 q=-0.0 size=N/A time=00:01:22.37 bitrate=N/A speed=3.63x    frame= 2018 fps= 87 q=-0.0 size=N/A time=00:01:24.16 bitrate=N/A speed=3.63x    frame= 2060 fps= 87 q=-0.0 size=N/A time=00:01:25.91 bitrate=N/A speed=3.62x    frame= 2104 fps= 87 q=-0.0 size=N/A time=00:01:27.75 bitrate=N/A speed=3.62x    frame= 2148 fps= 87 q=-0.0 size=N/A time=00:01:29.58 bitrate=N/A speed=3.62x    frame= 2193 fps= 87 q=-0.0 size=N/A time=00:01:31.46 bitrate=N/A speed=3.62x    frame= 2237 fps= 87 q=-0.0 size=N/A time=00:01:33.30 bitrate=N/A speed=3.62x    frame= 2281 fps= 87 q=-0.0 size=N/A time=00:01:35.13 bitrate=N/A speed=3.62x    frame= 2325 fps= 87 q=-0.0 size=N/A time=00:01:36.97 bitrate=N/A speed=3.62x    frame= 2368 fps= 87 q=-0.0 size=N/A time=00:01:38.76 bitrate=N/A speed=3.61x    frame= 2412 fps= 87 q=-0.0 size=N/A time=00:01:40.60 bitrate=N/A speed=3.61x    frame= 2455 fps= 87 q=-0.0 size=N/A time=00:01:42.39 bitrate=N/A speed=3.61x    frame= 2498 fps= 87 q=-0.0 size=N/A time=00:01:44.18 bitrate=N/A speed=3.61x    frame= 2542 fps= 86 q=-0.0 size=N/A time=00:01:46.02 bitrate=N/A speed=3.61x    frame= 2587 fps= 87 q=-0.0 size=N/A time=00:01:47.89 bitrate=N/A speed=3.61x    frame= 2632 fps= 87 q=-0.0 size=N/A time=00:01:49.77 bitrate=N/A speed=3.61x    frame= 2675 fps= 86 q=-0.0 size=N/A time=00:01:51.56 bitrate=N/A speed=3.61x    frame= 2719 fps= 86 q=-0.0 size=N/A time=00:01:53.40 bitrate=N/A speed=3.61x    frame= 2764 fps= 86 q=-0.0 size=N/A time=00:01:55.28 bitrate=N/A speed= 3.6x    frame= 2805 fps= 86 q=-0.0 size=N/A time=00:01:56.99 bitrate=N/A speed= 3.6x    frame= 2848 fps= 86 q=-0.0 size=N/A time=00:01:58.78 bitrate=N/A speed= 3.6x    frame= 2893 fps= 86 q=-0.0 size=N/A time=00:02:00.66 bitrate=N/A speed= 3.6x    frame= 2937 fps= 86 q=-0.0 size=N/A time=00:02:02.49 bitrate=N/A speed= 3.6x    frame= 2982 fps= 86 q=-0.0 size=N/A time=00:02:04.37 bitrate=N/A speed= 3.6x    frame= 3028 fps= 86 q=-0.0 size=N/A time=00:02:06.29 bitrate=N/A speed= 3.6x    frame= 3070 fps= 86 q=-0.0 size=N/A time=00:02:08.04 bitrate=N/A speed= 3.6x    frame= 3113 fps= 86 q=-0.0 size=N/A time=00:02:09.83 bitrate=N/A speed= 3.6x    frame= 3157 fps= 86 q=-0.0 size=N/A time=00:02:11.67 bitrate=N/A speed= 3.6x    frame= 3203 fps= 86 q=-0.0 size=N/A time=00:02:13.59 bitrate=N/A speed= 3.6x    frame= 3247 fps= 86 q=-0.0 size=N/A time=00:02:15.42 bitrate=N/A speed= 3.6x    frame= 3290 fps= 86 q=-0.0 size=N/A time=00:02:17.22 bitrate=N/A speed= 3.6x    frame= 3332 fps= 86 q=-0.0 size=N/A time=00:02:18.97 bitrate=N/A speed=3.59x    frame= 3377 fps= 86 q=-0.0 size=N/A time=00:02:20.84 bitrate=N/A speed=3.59x    frame= 3420 fps= 86 q=-0.0 size=N/A time=00:02:22.64 bitrate=N/A speed=3.59x    frame= 3463 fps= 86 q=-0.0 size=N/A time=00:02:24.43 bitrate=N/A speed=3.59x    frame= 3504 fps= 86 q=-0.0 size=N/A time=00:02:26.14 bitrate=N/A speed=3.59x    frame= 3546 fps= 86 q=-0.0 size=N/A time=00:02:27.89 bitrate=N/A speed=3.59x    frame= 3587 fps= 86 q=-0.0 size=N/A time=00:02:29.60 bitrate=N/A speed=3.58x    frame= 3630 fps= 86 q=-0.0 size=N/A time=00:02:31.40 bitrate=N/A speed=3.58x    frame= 3676 fps= 86 q=-0.0 size=N/A time=00:02:33.31 bitrate=N/A speed=3.58x    frame= 3719 fps= 86 q=-0.0 size=N/A time=00:02:35.11 bitrate=N/A speed=3.58x    frame= 3763 fps= 86 q=-0.0 size=N/A time=00:02:36.94 bitrate=N/A speed=3.58x    frame= 3805 fps= 86 q=-0.0 size=N/A time=00:02:38.70 bitrate=N/A speed=3.58x    frame= 3849 fps= 86 q=-0.0 size=N/A time=00:02:40.53 bitrate=N/A speed=3.58x    frame= 3893 fps= 86 q=-0.0 size=N/A time=00:02:42.37 bitrate=N/A speed=3.58x    frame= 3937 fps= 86 q=-0.0 size=N/A time=00:02:44.20 bitrate=N/A speed=3.58x    frame= 3982 fps= 86 q=-0.0 size=N/A time=00:02:46.08 bitrate=N/A speed=3.58x    frame= 4027 fps= 86 q=-0.0 size=N/A time=00:02:47.95 bitrate=N/A speed=3.58x    frame= 4072 fps= 86 q=-0.0 size=N/A time=00:02:49.83 bitrate=N/A speed=3.58x    frame= 4116 fps= 86 q=-0.0 size=N/A time=00:02:51.67 bitrate=N/A speed=3.58x    frame= 4161 fps= 86 q=-0.0 size=N/A time=00:02:53.54 bitrate=N/A speed=3.58x    frame= 4204 fps= 86 q=-0.0 size=N/A time=00:02:55.34 bitrate=N/A speed=3.58x    frame= 4248 fps= 86 q=-0.0 size=N/A time=00:02:57.17 bitrate=N/A speed=3.58x    frame= 4294 fps= 86 q=-0.0 size=N/A time=00:02:59.09 bitrate=N/A speed=3.58x    frame= 4339 fps= 86 q=-0.0 size=N/A time=00:03:00.97 bitrate=N/A speed=3.58x    frame= 4383 fps= 86 q=-0.0 size=N/A time=00:03:02.80 bitrate=N/A speed=3.58x    frame= 4427 fps= 86 q=-0.0 size=N/A time=00:03:04.64 bitrate=N/A speed=3.58x    frame= 4471 fps= 86 q=-0.0 size=N/A time=00:03:06.47 bitrate=N/A speed=3.58x    frame= 4517 fps= 86 q=-0.0 size=N/A time=00:03:08.39 bitrate=N/A speed=3.58x    frame= 4561 fps= 86 q=-0.0 size=N/A time=00:03:10.23 bitrate=N/A speed=3.58x    frame= 4605 fps= 86 q=-0.0 size=N/A time=00:03:12.06 bitrate=N/A speed=3.58x    frame= 4649 fps= 86 q=-0.0 size=N/A time=00:03:13.90 bitrate=N/A speed=3.58x    frame= 4694 fps= 86 q=-0.0 size=N/A time=00:03:15.77 bitrate=N/A speed=3.58x    frame= 4738 fps= 86 q=-0.0 size=N/A time=00:03:17.61 bitrate=N/A speed=3.58x    frame= 4784 fps= 86 q=-0.0 size=N/A time=00:03:19.53 bitrate=N/A speed=3.58x    frame= 4828 fps= 86 q=-0.0 size=N/A time=00:03:21.36 bitrate=N/A speed=3.58x    frame= 4871 fps= 86 q=-0.0 size=N/A time=00:03:23.16 bitrate=N/A speed=3.58x    frame= 4917 fps= 86 q=-0.0 size=N/A time=00:03:25.07 bitrate=N/A speed=3.58x    frame= 4961 fps= 86 q=-0.0 size=N/A time=00:03:26.91 bitrate=N/A speed=3.58x    frame= 5007 fps= 86 q=-0.0 size=N/A time=00:03:28.83 bitrate=N/A speed=3.58x    frame= 5051 fps= 86 q=-0.0 size=N/A time=00:03:30.66 bitrate=N/A speed=3.58x    frame= 5096 fps= 86 q=-0.0 size=N/A time=00:03:32.54 bitrate=N/A speed=3.58x    frame= 5141 fps= 86 q=-0.0 size=N/A time=00:03:34.42 bitrate=N/A speed=3.58x    frame= 5185 fps= 86 q=-0.0 size=N/A time=00:03:36.25 bitrate=N/A speed=3.58x    frame= 5230 fps= 86 q=-0.0 size=N/A time=00:03:38.13 bitrate=N/A speed=3.58x    frame= 5272 fps= 86 q=-0.0 size=N/A time=00:03:39.88 bitrate=N/A speed=3.58x    frame= 5314 fps= 86 q=-0.0 size=N/A time=00:03:41.63 bitrate=N/A speed=3.58x    frame= 5359 fps= 86 q=-0.0 size=N/A time=00:03:43.51 bitrate=N/A speed=3.58x    frame= 5402 fps= 86 q=-0.0 size=N/A time=00:03:45.30 bitrate=N/A speed=3.58x    frame= 5446 fps= 86 q=-0.0 size=N/A time=00:03:47.14 bitrate=N/A speed=3.58x    frame= 5492 fps= 86 q=-0.0 size=N/A time=00:03:49.06 bitrate=N/A speed=3.58x    frame= 5538 fps= 86 q=-0.0 size=N/A time=00:03:50.98 bitrate=N/A speed=3.58x    frame= 5581 fps= 86 q=-0.0 size=N/A time=00:03:52.77 bitrate=N/A speed=3.58x    frame= 5625 fps= 86 q=-0.0 size=N/A time=00:03:54.60 bitrate=N/A speed=3.58x    frame= 5668 fps= 86 q=-0.0 size=N/A time=00:03:56.40 bitrate=N/A speed=3.58x    frame= 5711 fps= 86 q=-0.0 size=N/A time=00:03:58.19 bitrate=N/A speed=3.58x    frame= 5755 fps= 86 q=-0.0 size=N/A time=00:04:00.03 bitrate=N/A speed=3.58x    frame= 5795 fps= 86 q=-0.0 size=N/A time=00:04:01.69 bitrate=N/A speed=3.58x    frame= 5839 fps= 86 q=-0.0 size=N/A time=00:04:03.53 bitrate=N/A speed=3.58x    frame= 5885 fps= 86 q=-0.0 size=N/A time=00:04:05.45 bitrate=N/A speed=3.58x    frame= 5929 fps= 86 q=-0.0 size=N/A time=00:04:07.28 bitrate=N/A speed=3.58x    frame= 5973 fps= 86 q=-0.0 size=N/A time=00:04:09.12 bitrate=N/A speed=3.58x    frame= 6020 fps= 86 q=-0.0 size=N/A time=00:04:11.08 bitrate=N/A speed=3.58x    frame= 6064 fps= 86 q=-0.0 size=N/A time=00:04:12.91 bitrate=N/A speed=3.58x    frame= 6109 fps= 86 q=-0.0 size=N/A time=00:04:14.79 bitrate=N/A speed=3.58x    frame= 6151 fps= 86 q=-0.0 size=N/A time=00:04:16.54 bitrate=N/A speed=3.58x    frame= 6194 fps= 86 q=-0.0 size=N/A time=00:04:18.34 bitrate=N/A speed=3.58x    frame= 6240 fps= 86 q=-0.0 size=N/A time=00:04:20.26 bitrate=N/A speed=3.58x    frame= 6283 fps= 86 q=-0.0 size=N/A time=00:04:22.05 bitrate=N/A speed=3.58x    frame= 6326 fps= 86 q=-0.0 size=N/A time=00:04:23.84 bitrate=N/A speed=3.58x    frame= 6370 fps= 86 q=-0.0 size=N/A time=00:04:25.68 bitrate=N/A speed=3.58x    frame= 6412 fps= 86 q=-0.0 size=N/A time=00:04:27.43 bitrate=N/A speed=3.58x    frame= 6459 fps= 86 q=-0.0 size=N/A time=00:04:29.39 bitrate=N/A speed=3.58x    frame= 6503 fps= 86 q=-0.0 size=N/A time=00:04:31.22 bitrate=N/A speed=3.58x    frame= 6549 fps= 86 q=-0.0 size=N/A time=00:04:33.14 bitrate=N/A speed=3.58x    frame= 6593 fps= 86 q=-0.0 size=N/A time=00:04:34.98 bitrate=N/A speed=3.58x    frame= 6637 fps= 86 q=-0.0 size=N/A time=00:04:36.81 bitrate=N/A speed=3.58x    frame= 6682 fps= 86 q=-0.0 size=N/A time=00:04:38.69 bitrate=N/A speed=3.58x    frame= 6726 fps= 86 q=-0.0 size=N/A time=00:04:40.53 bitrate=N/A speed=3.58x    frame= 6770 fps= 86 q=-0.0 size=N/A time=00:04:42.36 bitrate=N/A speed=3.58x    frame= 6815 fps= 86 q=-0.0 size=N/A time=00:04:44.24 bitrate=N/A speed=3.58x    frame= 6861 fps= 86 q=-0.0 size=N/A time=00:04:46.16 bitrate=N/A speed=3.58x    frame= 6906 fps= 86 q=-0.0 size=N/A time=00:04:48.03 bitrate=N/A speed=3.58x    frame= 6952 fps= 86 q=-0.0 size=N/A time=00:04:49.95 bitrate=N/A speed=3.58x    frame= 6998 fps= 86 q=-0.0 size=N/A time=00:04:51.87 bitrate=N/A speed=3.58x    frame= 7043 fps= 86 q=-0.0 size=N/A time=00:04:53.75 bitrate=N/A speed=3.58x    frame= 7087 fps= 86 q=-0.0 size=N/A time=00:04:55.58 bitrate=N/A speed=3.58x    frame= 7132 fps= 86 q=-0.0 size=N/A time=00:04:57.46 bitrate=N/A speed=3.58x    frame= 7176 fps= 86 q=-0.0 size=N/A time=00:04:59.29 bitrate=N/A speed=3.58x    frame= 7220 fps= 86 q=-0.0 size=N/A time=00:05:01.13 bitrate=N/A speed=3.58x    frame= 7265 fps= 86 q=-0.0 size=N/A time=00:05:03.01 bitrate=N/A speed=3.58x    frame= 7309 fps= 86 q=-0.0 size=N/A time=00:05:04.84 bitrate=N/A speed=3.58x    frame= 7353 fps= 86 q=-0.0 size=N/A time=00:05:06.68 bitrate=N/A speed=3.58x    frame= 7399 fps= 86 q=-0.0 size=N/A time=00:05:08.59 bitrate=N/A speed=3.58x    frame= 7441 fps= 86 q=-0.0 size=N/A time=00:05:10.35 bitrate=N/A speed=3.58x    frame= 7484 fps= 86 q=-0.0 size=N/A time=00:05:12.14 bitrate=N/A speed=3.58x    frame= 7531 fps= 86 q=-0.0 size=N/A time=00:05:14.10 bitrate=N/A speed=3.58x    frame= 7574 fps= 86 q=-0.0 size=N/A time=00:05:15.89 bitrate=N/A speed=3.58x    frame= 7621 fps= 86 q=-0.0 size=N/A time=00:05:17.85 bitrate=N/A speed=3.58x    frame= 7665 fps= 86 q=-0.0 size=N/A time=00:05:19.69 bitrate=N/A speed=3.58x    frame= 7711 fps= 86 q=-0.0 size=N/A time=00:05:21.61 bitrate=N/A speed=3.58x    frame= 7757 fps= 86 q=-0.0 size=N/A time=00:05:23.53 bitrate=N/A speed=3.58x    frame= 7802 fps= 86 q=-0.0 size=N/A time=00:05:25.40 bitrate=N/A speed=3.58x    frame= 7846 fps= 86 q=-0.0 size=N/A time=00:05:27.24 bitrate=N/A speed=3.58x    frame= 7892 fps= 86 q=-0.0 size=N/A time=00:05:29.16 bitrate=N/A speed=3.58x    frame= 7937 fps= 86 q=-0.0 size=N/A time=00:05:31.03 bitrate=N/A speed=3.58x    frame= 7984 fps= 86 q=-0.0 size=N/A time=00:05:32.99 bitrate=N/A speed=3.59x    frame= 8028 fps= 86 q=-0.0 size=N/A time=00:05:34.83 bitrate=N/A speed=3.59x    frame= 8071 fps= 86 q=-0.0 size=N/A time=00:05:36.62 bitrate=N/A speed=3.59x    frame= 8113 fps= 86 q=-0.0 size=N/A time=00:05:38.37 bitrate=N/A speed=3.58x    frame= 8159 fps= 86 q=-0.0 size=N/A time=00:05:40.29 bitrate=N/A speed=3.58x    frame= 8202 fps= 86 q=-0.0 size=N/A time=00:05:42.09 bitrate=N/A speed=3.58x    frame= 8249 fps= 86 q=-0.0 size=N/A time=00:05:44.05 bitrate=N/A speed=3.59x    frame= 8292 fps= 86 q=-0.0 size=N/A time=00:05:45.84 bitrate=N/A speed=3.59x    frame= 8338 fps= 86 q=-0.0 size=N/A time=00:05:47.76 bitrate=N/A speed=3.59x    frame= 8383 fps= 86 q=-0.0 size=N/A time=00:05:49.64 bitrate=N/A speed=3.59x    frame= 8427 fps= 86 q=-0.0 size=N/A time=00:05:51.47 bitrate=N/A speed=3.59x    frame= 8473 fps= 86 q=-0.0 size=N/A time=00:05:53.39 bitrate=N/A speed=3.59x    frame= 8515 fps= 86 q=-0.0 size=N/A time=00:05:55.14 bitrate=N/A speed=3.59x    frame= 8559 fps= 86 q=-0.0 size=N/A time=00:05:56.98 bitrate=N/A speed=3.59x    frame= 8604 fps= 86 q=-0.0 size=N/A time=00:05:58.85 bitrate=N/A speed=3.59x    frame= 8648 fps= 86 q=-0.0 size=N/A time=00:06:00.69 bitrate=N/A speed=3.59x    frame= 8693 fps= 86 q=-0.0 size=N/A time=00:06:02.57 bitrate=N/A speed=3.59x    frame= 8737 fps= 86 q=-0.0 size=N/A time=00:06:04.40 bitrate=N/A speed=3.59x    frame= 8782 fps= 86 q=-0.0 size=N/A time=00:06:06.28 bitrate=N/A speed=3.59x    frame= 8826 fps= 86 q=-0.0 size=N/A time=00:06:08.11 bitrate=N/A speed=3.59x    frame= 8870 fps= 86 q=-0.0 size=N/A time=00:06:09.95 bitrate=N/A speed=3.59x    frame= 8915 fps= 86 q=-0.0 size=N/A time=00:06:11.82 bitrate=N/A speed=3.59x    frame= 8961 fps= 86 q=-0.0 size=N/A time=00:06:13.74 bitrate=N/A speed=3.59x    frame= 9005 fps= 86 q=-0.0 size=N/A time=00:06:15.58 bitrate=N/A speed=3.59x    frame= 9050 fps= 86 q=-0.0 size=N/A time=00:06:17.46 bitrate=N/A speed=3.59x    frame= 9094 fps= 86 q=-0.0 size=N/A time=00:06:19.29 bitrate=N/A speed=3.59x    frame= 9136 fps= 86 q=-0.0 size=N/A time=00:06:21.04 bitrate=N/A speed=3.59x    frame= 9180 fps= 86 q=-0.0 size=N/A time=00:06:22.88 bitrate=N/A speed=3.59x    frame= 9223 fps= 86 q=-0.0 size=N/A time=00:06:24.67 bitrate=N/A speed=3.59x    frame= 9267 fps= 86 q=-0.0 size=N/A time=00:06:26.51 bitrate=N/A speed=3.58x    frame= 9311 fps= 86 q=-0.0 size=N/A time=00:06:28.34 bitrate=N/A speed=3.58x    frame= 9354 fps= 86 q=-0.0 size=N/A time=00:06:30.13 bitrate=N/A speed=3.58x    frame= 9399 fps= 86 q=-0.0 size=N/A time=00:06:32.01 bitrate=N/A speed=3.58x    frame= 9445 fps= 86 q=-0.0 size=N/A time=00:06:33.93 bitrate=N/A speed=3.59x    frame= 9490 fps= 86 q=-0.0 size=N/A time=00:06:35.81 bitrate=N/A speed=3.59x    frame= 9536 fps= 86 q=-0.0 size=N/A time=00:06:37.73 bitrate=N/A speed=3.59x    frame= 9580 fps= 86 q=-0.0 size=N/A time=00:06:39.56 bitrate=N/A speed=3.59x    frame= 9625 fps= 86 q=-0.0 size=N/A time=00:06:41.44 bitrate=N/A speed=3.59x    frame= 9668 fps= 86 q=-0.0 size=N/A time=00:06:43.23 bitrate=N/A speed=3.59x    frame= 9713 fps= 86 q=-0.0 size=N/A time=00:06:45.11 bitrate=N/A speed=3.59x    frame= 9757 fps= 86 q=-0.0 size=N/A time=00:06:46.94 bitrate=N/A speed=3.59x    frame= 9802 fps= 86 q=-0.0 size=N/A time=00:06:48.82 bitrate=N/A speed=3.59x    frame= 9843 fps= 86 q=-0.0 size=N/A time=00:06:50.53 bitrate=N/A speed=3.58x    frame= 9888 fps= 86 q=-0.0 size=N/A time=00:06:52.41 bitrate=N/A speed=3.59x    frame= 9933 fps= 86 q=-0.0 size=N/A time=00:06:54.28 bitrate=N/A speed=3.59x    frame= 9981 fps= 86 q=-0.0 size=N/A time=00:06:56.29 bitrate=N/A speed=3.59x    frame=10025 fps= 86 q=-0.0 size=N/A time=00:06:58.12 bitrate=N/A speed=3.59x    frame=10070 fps= 86 q=-0.0 size=N/A time=00:07:00.00 bitrate=N/A speed=3.59x    frame=10114 fps= 86 q=-0.0 size=N/A time=00:07:01.83 bitrate=N/A speed=3.59x    frame=10158 fps= 86 q=-0.0 size=N/A time=00:07:03.67 bitrate=N/A speed=3.59x    frame=10202 fps= 86 q=-0.0 size=N/A time=00:07:05.50 bitrate=N/A speed=3.59x    frame=10246 fps= 86 q=-0.0 size=N/A time=00:07:07.34 bitrate=N/A speed=3.59x    frame=10290 fps= 86 q=-0.0 size=N/A time=00:07:09.17 bitrate=N/A speed=3.59x    frame=10335 fps= 86 q=-0.0 size=N/A time=00:07:11.05 bitrate=N/A speed=3.59x    frame=10378 fps= 86 q=-0.0 size=N/A time=00:07:12.84 bitrate=N/A speed=3.59x    frame=10422 fps= 86 q=-0.0 size=N/A time=00:07:14.68 bitrate=N/A speed=3.59x    frame=10468 fps= 86 q=-0.0 size=N/A time=00:07:16.60 bitrate=N/A speed=3.59x    frame=10512 fps= 86 q=-0.0 size=N/A time=00:07:18.43 bitrate=N/A speed=3.59x    frame=10554 fps= 86 q=-0.0 size=N/A time=00:07:20.18 bitrate=N/A speed=3.59x    frame=10598 fps= 86 q=-0.0 size=N/A time=00:07:22.02 bitrate=N/A speed=3.59x    frame=10642 fps= 86 q=-0.0 size=N/A time=00:07:23.86 bitrate=N/A speed=3.59x    frame=10687 fps= 86 q=-0.0 size=N/A time=00:07:25.73 bitrate=N/A speed=3.59x    frame=10728 fps= 86 q=-0.0 size=N/A time=00:07:27.44 bitrate=N/A speed=3.58x    frame=10774 fps= 86 q=-0.0 size=N/A time=00:07:29.36 bitrate=N/A speed=3.58x    frame=10819 fps= 86 q=-0.0 size=N/A time=00:07:31.24 bitrate=N/A speed=3.58x    frame=10861 fps= 86 q=-0.0 size=N/A time=00:07:32.99 bitrate=N/A speed=3.58x    frame=10907 fps= 86 q=-0.0 size=N/A time=00:07:34.91 bitrate=N/A speed=3.58x    frame=10951 fps= 86 q=-0.0 size=N/A time=00:07:36.74 bitrate=N/A speed=3.58x    frame=10996 fps= 86 q=-0.0 size=N/A time=00:07:38.62 bitrate=N/A speed=3.58x    frame=11039 fps= 86 q=-0.0 size=N/A time=00:07:40.41 bitrate=N/A speed=3.58x    frame=11082 fps= 86 q=-0.0 size=N/A time=00:07:42.21 bitrate=N/A speed=3.58x    frame=11129 fps= 86 q=-0.0 size=N/A time=00:07:44.17 bitrate=N/A speed=3.58x    frame=11173 fps= 86 q=-0.0 size=N/A time=00:07:46.00 bitrate=N/A speed=3.58x    frame=11218 fps= 86 q=-0.0 size=N/A time=00:07:47.88 bitrate=N/A speed=3.59x    frame=11263 fps= 86 q=-0.0 size=N/A time=00:07:49.76 bitrate=N/A speed=3.58x    frame=11306 fps= 86 q=-0.0 size=N/A time=00:07:51.55 bitrate=N/A speed=3.58x    frame=11351 fps= 86 q=-0.0 size=N/A time=00:07:53.43 bitrate=N/A speed=3.58x    frame=11397 fps= 86 q=-0.0 size=N/A time=00:07:55.34 bitrate=N/A speed=3.59x    frame=11442 fps= 86 q=-0.0 size=N/A time=00:07:57.22 bitrate=N/A speed=3.59x    frame=11486 fps= 86 q=-0.0 size=N/A time=00:07:59.06 bitrate=N/A speed=3.59x    frame=11532 fps= 86 q=-0.0 size=N/A time=00:08:00.98 bitrate=N/A speed=3.59x    frame=11579 fps= 86 q=-0.0 size=N/A time=00:08:02.94 bitrate=N/A speed=3.59x    frame=11621 fps= 86 q=-0.0 size=N/A time=00:08:04.69 bitrate=N/A speed=3.59x    frame=11668 fps= 86 q=-0.0 size=N/A time=00:08:06.65 bitrate=N/A speed=3.59x    frame=11713 fps= 86 q=-0.0 size=N/A time=00:08:08.52 bitrate=N/A speed=3.59x    frame=11757 fps= 86 q=-0.0 size=N/A time=00:08:10.36 bitrate=N/A speed=3.59x    frame=11801 fps= 86 q=-0.0 size=N/A time=00:08:12.20 bitrate=N/A speed=3.59x    frame=11846 fps= 86 q=-0.0 size=N/A time=00:08:14.07 bitrate=N/A speed=3.59x    frame=11891 fps= 86 q=-0.0 size=N/A time=00:08:15.95 bitrate=N/A speed=3.59x    frame=11935 fps= 86 q=-0.0 size=N/A time=00:08:17.78 bitrate=N/A speed=3.59x    frame=11981 fps= 86 q=-0.0 size=N/A time=00:08:19.70 bitrate=N/A speed=3.59x    frame=12027 fps= 86 q=-0.0 size=N/A time=00:08:21.62 bitrate=N/A speed=3.59x    frame=12073 fps= 86 q=-0.0 size=N/A time=00:08:23.54 bitrate=N/A speed=3.59x    frame=12120 fps= 86 q=-0.0 size=N/A time=00:08:25.50 bitrate=N/A speed=3.59x    frame=12166 fps= 86 q=-0.0 size=N/A time=00:08:27.42 bitrate=N/A speed=3.59x    frame=12211 fps= 86 q=-0.0 size=N/A time=00:08:29.30 bitrate=N/A speed=3.59x    frame=12257 fps= 86 q=-0.0 size=N/A time=00:08:31.21 bitrate=N/A speed=3.59x    frame=12300 fps= 86 q=-0.0 size=N/A time=00:08:33.01 bitrate=N/A speed=3.59x    frame=12343 fps= 86 q=-0.0 size=N/A time=00:08:34.80 bitrate=N/A speed=3.59x    frame=12389 fps= 86 q=-0.0 size=N/A time=00:08:36.72 bitrate=N/A speed=3.59x    frame=12433 fps= 86 q=-0.0 size=N/A time=00:08:38.55 bitrate=N/A speed=3.59x    frame=12474 fps= 86 q=-0.0 size=N/A time=00:08:40.26 bitrate=N/A speed=3.59x    frame=12517 fps= 86 q=-0.0 size=N/A time=00:08:42.06 bitrate=N/A speed=3.59x    frame=12563 fps= 86 q=-0.0 size=N/A time=00:08:43.98 bitrate=N/A speed=3.59x    frame=12606 fps= 86 q=-0.0 size=N/A time=00:08:45.77 bitrate=N/A speed=3.59x    frame=12650 fps= 86 q=-0.0 size=N/A time=00:08:47.61 bitrate=N/A speed=3.59x    frame=12692 fps= 86 q=-0.0 size=N/A time=00:08:49.36 bitrate=N/A speed=3.59x    frame=12738 fps= 86 q=-0.0 size=N/A time=00:08:51.28 bitrate=N/A speed=3.59x    frame=12782 fps= 86 q=-0.0 size=N/A time=00:08:53.11 bitrate=N/A speed=3.59x    frame=12827 fps= 86 q=-0.0 size=N/A time=00:08:54.99 bitrate=N/A speed=3.59x    frame=12872 fps= 86 q=-0.0 size=N/A time=00:08:56.86 bitrate=N/A speed=3.59x    frame=12915 fps= 86 q=-0.0 size=N/A time=00:08:58.66 bitrate=N/A speed=3.59x    frame=12962 fps= 86 q=-0.0 size=N/A time=00:09:00.62 bitrate=N/A speed=3.59x    frame=13006 fps= 86 q=-0.0 size=N/A time=00:09:02.45 bitrate=N/A speed=3.59x    frame=13052 fps= 86 q=-0.0 size=N/A time=00:09:04.37 bitrate=N/A speed=3.59x    frame=13096 fps= 86 q=-0.0 size=N/A time=00:09:06.21 bitrate=N/A speed=3.59x    frame=13138 fps= 86 q=-0.0 size=N/A time=00:09:07.96 bitrate=N/A speed=3.59x    frame=13184 fps= 86 q=-0.0 size=N/A time=00:09:09.88 bitrate=N/A speed=3.59x    frame=13231 fps= 86 q=-0.0 size=N/A time=00:09:11.84 bitrate=N/A speed=3.59x    frame=13275 fps= 86 q=-0.0 size=N/A time=00:09:13.67 bitrate=N/A speed=3.59x    frame=13322 fps= 86 q=-0.0 size=N/A time=00:09:15.63 bitrate=N/A speed=3.59x    frame=13367 fps= 86 q=-0.0 size=N/A time=00:09:17.51 bitrate=N/A speed=3.59x    frame=13411 fps= 86 q=-0.0 size=N/A time=00:09:19.35 bitrate=N/A speed=3.59x    frame=13455 fps= 86 q=-0.0 size=N/A time=00:09:21.18 bitrate=N/A speed=3.59x    frame=13500 fps= 86 q=-0.0 size=N/A time=00:09:23.06 bitrate=N/A speed=3.59x    frame=13545 fps= 86 q=-0.0 size=N/A time=00:09:24.93 bitrate=N/A speed=3.59x    frame=13588 fps= 86 q=-0.0 size=N/A time=00:09:26.73 bitrate=N/A speed=3.59x    frame=13633 fps= 86 q=-0.0 size=N/A time=00:09:28.60 bitrate=N/A speed=3.59x    frame=13677 fps= 86 q=-0.0 size=N/A time=00:09:30.44 bitrate=N/A speed=3.59x    frame=13720 fps= 86 q=-0.0 size=N/A time=00:09:32.23 bitrate=N/A speed=3.59x    frame=13765 fps= 86 q=-0.0 size=N/A time=00:09:34.11 bitrate=N/A speed=3.59x    frame=13811 fps= 86 q=-0.0 size=N/A time=00:09:36.03 bitrate=N/A speed=3.59x    frame=13857 fps= 86 q=-0.0 size=N/A time=00:09:37.95 bitrate=N/A speed=3.59x    frame=13900 fps= 86 q=-0.0 size=N/A time=00:09:39.74 bitrate=N/A speed=3.59x    frame=13946 fps= 86 q=-0.0 size=N/A time=00:09:41.66 bitrate=N/A speed=3.59x    frame=13991 fps= 86 q=-0.0 size=N/A time=00:09:43.54 bitrate=N/A speed=3.59x    frame=14038 fps= 86 q=-0.0 size=N/A time=00:09:45.50 bitrate=N/A speed=3.59x    frame=14081 fps= 86 q=-0.0 size=N/A time=00:09:47.29 bitrate=N/A speed=3.59x    frame=14124 fps= 86 q=-0.0 size=N/A time=00:09:49.08 bitrate=N/A speed=3.59x    frame=14168 fps= 86 q=-0.0 size=N/A time=00:09:50.92 bitrate=N/A speed=3.59x    frame=14214 fps= 86 q=-0.0 size=N/A time=00:09:52.84 bitrate=N/A speed=3.59x    frame=14259 fps= 86 q=-0.0 size=N/A time=00:09:54.71 bitrate=N/A speed=3.59x    frame=14305 fps= 86 q=-0.0 size=N/A time=00:09:56.63 bitrate=N/A speed=3.59x    frame=14349 fps= 86 q=-0.0 size=N/A time=00:09:58.47 bitrate=N/A speed=3.59x    frame=14393 fps= 86 q=-0.0 size=N/A time=00:10:00.30 bitrate=N/A speed=3.59x    frame=14438 fps= 86 q=-0.0 size=N/A time=00:10:02.18 bitrate=N/A speed=3.59x    frame=14483 fps= 86 q=-0.0 size=N/A time=00:10:04.06 bitrate=N/A speed=3.59x    frame=14528 fps= 86 q=-0.0 size=N/A time=00:10:05.93 bitrate=N/A speed=3.59x    frame=14573 fps= 86 q=-0.0 size=N/A time=00:10:07.81 bitrate=N/A speed=3.59x    frame=14616 fps= 86 q=-0.0 size=N/A time=00:10:09.60 bitrate=N/A speed=3.59x    frame=14663 fps= 86 q=-0.0 size=N/A time=00:10:11.56 bitrate=N/A speed=3.59x    frame=14706 fps= 86 q=-0.0 size=N/A time=00:10:13.36 bitrate=N/A speed=3.59x    frame=14751 fps= 86 q=-0.0 size=N/A time=00:10:15.23 bitrate=N/A speed=3.59x    frame=14794 fps= 86 q=-0.0 size=N/A time=00:10:17.03 bitrate=N/A speed=3.59x    frame=14839 fps= 86 q=-0.0 size=N/A time=00:10:18.90 bitrate=N/A speed=3.59x    frame=14882 fps= 86 q=-0.0 size=N/A time=00:10:20.70 bitrate=N/A speed=3.59x    frame=14926 fps= 86 q=-0.0 size=N/A time=00:10:22.53 bitrate=N/A speed=3.59x    frame=14967 fps= 86 q=-0.0 size=N/A time=00:10:24.24 bitrate=N/A speed=3.59x    frame=15012 fps= 86 q=-0.0 size=N/A time=00:10:26.12 bitrate=N/A speed=3.59x    frame=15056 fps= 86 q=-0.0 size=N/A time=00:10:27.96 bitrate=N/A speed=3.59x    frame=15103 fps= 86 q=-0.0 size=N/A time=00:10:29.92 bitrate=N/A speed=3.59x    frame=15147 fps= 86 q=-0.0 size=N/A time=00:10:31.75 bitrate=N/A speed=3.59x    frame=15194 fps= 86 q=-0.0 size=N/A time=00:10:33.71 bitrate=N/A speed=3.59x    frame=15239 fps= 86 q=-0.0 size=N/A time=00:10:35.59 bitrate=N/A speed=3.59x    frame=15285 fps= 86 q=-0.0 size=N/A time=00:10:37.51 bitrate=N/A speed=3.59x    frame=15330 fps= 86 q=-0.0 size=N/A time=00:10:39.38 bitrate=N/A speed=3.59x    frame=15373 fps= 86 q=-0.0 size=N/A time=00:10:41.18 bitrate=N/A speed=3.59x    frame=15419 fps= 86 q=-0.0 size=N/A time=00:10:43.10 bitrate=N/A speed=3.59x    frame=15465 fps= 86 q=-0.0 size=N/A time=00:10:45.01 bitrate=N/A speed=3.59x    frame=15510 fps= 86 q=-0.0 size=N/A time=00:10:46.89 bitrate=N/A speed=3.59x    frame=15554 fps= 86 q=-0.0 size=N/A time=00:10:48.73 bitrate=N/A speed=3.59x    frame=15599 fps= 86 q=-0.0 size=N/A time=00:10:50.60 bitrate=N/A speed=3.59x    frame=15643 fps= 86 q=-0.0 size=N/A time=00:10:52.44 bitrate=N/A speed=3.59x    frame=15686 fps= 86 q=-0.0 size=N/A time=00:10:54.23 bitrate=N/A speed=3.59x    frame=15732 fps= 86 q=-0.0 size=N/A time=00:10:56.15 bitrate=N/A speed=3.59x    frame=15775 fps= 86 q=-0.0 size=N/A time=00:10:57.94 bitrate=N/A speed=3.59x    frame=15822 fps= 86 q=-0.0 size=N/A time=00:10:59.90 bitrate=N/A speed=3.59x    frame=15864 fps= 86 q=-0.0 size=N/A time=00:11:01.66 bitrate=N/A speed=3.59x    frame=15907 fps= 86 q=-0.0 size=N/A time=00:11:03.45 bitrate=N/A speed=3.59x    frame=15951 fps= 86 q=-0.0 size=N/A time=00:11:05.28 bitrate=N/A speed=3.59x    frame=15993 fps= 86 q=-0.0 size=N/A time=00:11:07.04 bitrate=N/A speed=3.59x    frame=16037 fps= 86 q=-0.0 size=N/A time=00:11:08.87 bitrate=N/A speed=3.59x    frame=16080 fps= 86 q=-0.0 size=N/A time=00:11:10.67 bitrate=N/A speed=3.59x    frame=16123 fps= 86 q=-0.0 size=N/A time=00:11:12.46 bitrate=N/A speed=3.59x    frame=16167 fps= 86 q=-0.0 size=N/A time=00:11:14.29 bitrate=N/A speed=3.59x    frame=16214 fps= 86 q=-0.0 size=N/A time=00:11:16.25 bitrate=N/A speed=3.59x    frame=16256 fps= 86 q=-0.0 size=N/A time=00:11:18.01 bitrate=N/A speed=3.59x    frame=16300 fps= 86 q=-0.0 size=N/A time=00:11:19.84 bitrate=N/A speed=3.59x    frame=16345 fps= 86 q=-0.0 size=N/A time=00:11:21.72 bitrate=N/A speed=3.59x    frame=16389 fps= 86 q=-0.0 size=N/A time=00:11:23.55 bitrate=N/A speed=3.59x    frame=16433 fps= 86 q=-0.0 size=N/A time=00:11:25.39 bitrate=N/A speed=3.59x    frame=16476 fps= 86 q=-0.0 size=N/A time=00:11:27.18 bitrate=N/A speed=3.59x    frame=16521 fps= 86 q=-0.0 size=N/A time=00:11:29.06 bitrate=N/A speed=3.59x    frame=16563 fps= 86 q=-0.0 size=N/A time=00:11:30.81 bitrate=N/A speed=3.59x    frame=16608 fps= 86 q=-0.0 size=N/A time=00:11:32.69 bitrate=N/A speed=3.59x    frame=16655 fps= 86 q=-0.0 size=N/A time=00:11:34.65 bitrate=N/A speed=3.59x    frame=16700 fps= 86 q=-0.0 size=N/A time=00:11:36.52 bitrate=N/A speed=3.59x    frame=16745 fps= 86 q=-0.0 size=N/A time=00:11:38.40 bitrate=N/A speed=3.59x    frame=16788 fps= 86 q=-0.0 size=N/A time=00:11:40.19 bitrate=N/A speed=3.59x    frame=16834 fps= 86 q=-0.0 size=N/A time=00:11:42.11 bitrate=N/A speed=3.59x    frame=16878 fps= 86 q=-0.0 size=N/A time=00:11:43.95 bitrate=N/A speed=3.59x    frame=16922 fps= 86 q=-0.0 size=N/A time=00:11:45.78 bitrate=N/A speed=3.59x    frame=16967 fps= 86 q=-0.0 size=N/A time=00:11:47.66 bitrate=N/A speed=3.59x    frame=17009 fps= 86 q=-0.0 size=N/A time=00:11:49.41 bitrate=N/A speed=3.59x    frame=17055 fps= 86 q=-0.0 size=N/A time=00:11:51.33 bitrate=N/A speed=3.59x    frame=17100 fps= 86 q=-0.0 size=N/A time=00:11:53.21 bitrate=N/A speed=3.59x    frame=17144 fps= 86 q=-0.0 size=N/A time=00:11:55.04 bitrate=N/A speed=3.59x    frame=17188 fps= 86 q=-0.0 size=N/A time=00:11:56.88 bitrate=N/A speed=3.59x    frame=17233 fps= 86 q=-0.0 size=N/A time=00:11:58.75 bitrate=N/A speed=3.59x    frame=17279 fps= 86 q=-0.0 size=N/A time=00:12:00.67 bitrate=N/A speed=3.59x    frame=17323 fps= 86 q=-0.0 size=N/A time=00:12:02.51 bitrate=N/A speed=3.59x    frame=17370 fps= 86 q=-0.0 size=N/A time=00:12:04.47 bitrate=N/A speed=3.59x    frame=17414 fps= 86 q=-0.0 size=N/A time=00:12:06.30 bitrate=N/A speed=3.59x    frame=17456 fps= 86 q=-0.0 size=N/A time=00:12:08.06 bitrate=N/A speed=3.59x    frame=17499 fps= 86 q=-0.0 size=N/A time=00:12:09.85 bitrate=N/A speed=3.59x    frame=17541 fps= 86 q=-0.0 size=N/A time=00:12:11.60 bitrate=N/A speed=3.59x    frame=17586 fps= 86 q=-0.0 size=N/A time=00:12:13.48 bitrate=N/A speed=3.59x    frame=17628 fps= 86 q=-0.0 size=N/A time=00:12:15.23 bitrate=N/A speed=3.59x    frame=17672 fps= 86 q=-0.0 size=N/A time=00:12:17.06 bitrate=N/A speed=3.59x    frame=17715 fps= 86 q=-0.0 size=N/A time=00:12:18.86 bitrate=N/A speed=3.59x    frame=17760 fps= 86 q=-0.0 size=N/A time=00:12:20.74 bitrate=N/A speed=3.59x    frame=17804 fps= 86 q=-0.0 size=N/A time=00:12:22.57 bitrate=N/A speed=3.59x    frame=17847 fps= 86 q=-0.0 size=N/A time=00:12:24.36 bitrate=N/A speed=3.59x    frame=17889 fps= 86 q=-0.0 size=N/A time=00:12:26.12 bitrate=N/A speed=3.59x    frame=17934 fps= 86 q=-0.0 size=N/A time=00:12:27.99 bitrate=N/A speed=3.59x    frame=17978 fps= 86 q=-0.0 size=N/A time=00:12:29.83 bitrate=N/A speed=3.59x    frame=18026 fps= 86 q=-0.0 size=N/A time=00:12:31.83 bitrate=N/A speed=3.59x    frame=18072 fps= 86 q=-0.0 size=N/A time=00:12:33.75 bitrate=N/A speed=3.59x    frame=18117 fps= 86 q=-0.0 size=N/A time=00:12:35.62 bitrate=N/A speed=3.59x    frame=18161 fps= 86 q=-0.0 size=N/A time=00:12:37.46 bitrate=N/A speed=3.59x    frame=18206 fps= 86 q=-0.0 size=N/A time=00:12:39.34 bitrate=N/A speed=3.59x    frame=18248 fps= 86 q=-0.0 size=N/A time=00:12:41.09 bitrate=N/A speed=3.59x    frame=18294 fps= 86 q=-0.0 size=N/A time=00:12:43.01 bitrate=N/A speed=3.59x    frame=18338 fps= 86 q=-0.0 size=N/A time=00:12:44.84 bitrate=N/A speed=3.59x    frame=18382 fps= 86 q=-0.0 size=N/A time=00:12:46.68 bitrate=N/A speed=3.59x    frame=18428 fps= 86 q=-0.0 size=N/A time=00:12:48.60 bitrate=N/A speed=3.59x    frame=18469 fps= 86 q=-0.0 size=N/A time=00:12:50.31 bitrate=N/A speed=3.59x    frame=18513 fps= 86 q=-0.0 size=N/A time=00:12:52.14 bitrate=N/A speed=3.59x    frame=18556 fps= 86 q=-0.0 size=N/A time=00:12:53.93 bitrate=N/A speed=3.59x    frame=18600 fps= 86 q=-0.0 size=N/A time=00:12:55.77 bitrate=N/A speed=3.59x    frame=18643 fps= 86 q=-0.0 size=N/A time=00:12:57.56 bitrate=N/A speed=3.59x    frame=18687 fps= 86 q=-0.0 size=N/A time=00:12:59.40 bitrate=N/A speed=3.59x    frame=18733 fps= 86 q=-0.0 size=N/A time=00:13:01.32 bitrate=N/A speed=3.59x    frame=18777 fps= 86 q=-0.0 size=N/A time=00:13:03.15 bitrate=N/A speed=3.59x    frame=18823 fps= 86 q=-0.0 size=N/A time=00:13:05.07 bitrate=N/A speed=3.59x    frame=18867 fps= 86 q=-0.0 size=N/A time=00:13:06.91 bitrate=N/A speed=3.59x    frame=18911 fps= 86 q=-0.0 size=N/A time=00:13:08.74 bitrate=N/A speed=3.59x    frame=18953 fps= 86 q=-0.0 size=N/A time=00:13:10.49 bitrate=N/A speed=3.59x    frame=18998 fps= 86 q=-0.0 size=N/A time=00:13:12.37 bitrate=N/A speed=3.59x    frame=19044 fps= 86 q=-0.0 size=N/A time=00:13:14.29 bitrate=N/A speed=3.59x    frame=19088 fps= 86 q=-0.0 size=N/A time=00:13:16.12 bitrate=N/A speed=3.59x    frame=19131 fps= 86 q=-0.0 size=N/A time=00:13:17.92 bitrate=N/A speed=3.59x    frame=19176 fps= 86 q=-0.0 size=N/A time=00:13:19.79 bitrate=N/A speed=3.59x    frame=19221 fps= 86 q=-0.0 size=N/A time=00:13:21.67 bitrate=N/A speed=3.59x    frame=19265 fps= 86 q=-0.0 size=N/A time=00:13:23.51 bitrate=N/A speed=3.59x    frame=19309 fps= 86 q=-0.0 size=N/A time=00:13:25.34 bitrate=N/A speed=3.59x    frame=19354 fps= 86 q=-0.0 size=N/A time=00:13:27.22 bitrate=N/A speed=3.59x    frame=19398 fps= 86 q=-0.0 size=N/A time=00:13:29.05 bitrate=N/A speed=3.59x    frame=19440 fps= 86 q=-0.0 size=N/A time=00:13:30.81 bitrate=N/A speed=3.59x    frame=19484 fps= 86 q=-0.0 size=N/A time=00:13:32.64 bitrate=N/A speed=3.59x    frame=19528 fps= 86 q=-0.0 size=N/A time=00:13:34.48 bitrate=N/A speed=3.59x    frame=19572 fps= 86 q=-0.0 size=N/A time=00:13:36.31 bitrate=N/A speed=3.59x    frame=19616 fps= 86 q=-0.0 size=N/A time=00:13:38.15 bitrate=N/A speed=3.59x    frame=19660 fps= 86 q=-0.0 size=N/A time=00:13:39.98 bitrate=N/A speed=3.59x    frame=19704 fps= 86 q=-0.0 size=N/A time=00:13:41.82 bitrate=N/A speed=3.59x    frame=19747 fps= 86 q=-0.0 size=N/A time=00:13:43.61 bitrate=N/A speed=3.59x    frame=19794 fps= 86 q=-0.0 size=N/A time=00:13:45.57 bitrate=N/A speed=3.59x    frame=19837 fps= 86 q=-0.0 size=N/A time=00:13:47.36 bitrate=N/A speed=3.59x    frame=19882 fps= 86 q=-0.0 size=N/A time=00:13:49.24 bitrate=N/A speed=3.59x    frame=19926 fps= 86 q=-0.0 size=N/A time=00:13:51.08 bitrate=N/A speed=3.59x    frame=19971 fps= 86 q=-0.0 size=N/A time=00:13:52.95 bitrate=N/A speed=3.59x    frame=20016 fps= 86 q=-0.0 size=N/A time=00:13:54.83 bitrate=N/A speed=3.59x    frame=20060 fps= 86 q=-0.0 size=N/A time=00:13:56.66 bitrate=N/A speed=3.59x    frame=20106 fps= 86 q=-0.0 size=N/A time=00:13:58.58 bitrate=N/A speed=3.59x    frame=20150 fps= 86 q=-0.0 size=N/A time=00:14:00.42 bitrate=N/A speed=3.59x    frame=20195 fps= 86 q=-0.0 size=N/A time=00:14:02.29 bitrate=N/A speed=3.59x    frame=20240 fps= 86 q=-0.0 size=N/A time=00:14:04.17 bitrate=N/A speed=3.59x    frame=20285 fps= 86 q=-0.0 size=N/A time=00:14:06.05 bitrate=N/A speed=3.59x    frame=20329 fps= 86 q=-0.0 size=N/A time=00:14:07.88 bitrate=N/A speed=3.59x    frame=20374 fps= 86 q=-0.0 size=N/A time=00:14:09.76 bitrate=N/A speed=3.59x    frame=20418 fps= 86 q=-0.0 size=N/A time=00:14:11.60 bitrate=N/A speed=3.59x    frame=20461 fps= 86 q=-0.0 size=N/A time=00:14:13.39 bitrate=N/A speed=3.59x    frame=20504 fps= 86 q=-0.0 size=N/A time=00:14:15.18 bitrate=N/A speed=3.59x    frame=20550 fps= 86 q=-0.0 size=N/A time=00:14:17.10 bitrate=N/A speed=3.59x    frame=20595 fps= 86 q=-0.0 size=N/A time=00:14:18.98 bitrate=N/A speed=3.59x    frame=20640 fps= 86 q=-0.0 size=N/A time=00:14:20.86 bitrate=N/A speed=3.59x    frame=20684 fps= 86 q=-0.0 size=N/A time=00:14:22.69 bitrate=N/A speed=3.59x    frame=20726 fps= 86 q=-0.0 size=N/A time=00:14:24.44 bitrate=N/A speed=3.59x    frame=20774 fps= 86 q=-0.0 size=N/A time=00:14:26.44 bitrate=N/A speed=3.59x    frame=20821 fps= 86 q=-0.0 size=N/A time=00:14:28.40 bitrate=N/A speed=3.59x    frame=20864 fps= 86 q=-0.0 size=N/A time=00:14:30.20 bitrate=N/A speed=3.59x    frame=20912 fps= 86 q=-0.0 size=N/A time=00:14:32.20 bitrate=N/A speed=3.59x    frame=20953 fps= 86 q=-0.0 size=N/A time=00:14:33.91 bitrate=N/A speed=3.59x    frame=20998 fps= 86 q=-0.0 size=N/A time=00:14:35.79 bitrate=N/A speed=3.59x    frame=21043 fps= 86 q=-0.0 size=N/A time=00:14:37.66 bitrate=N/A speed=3.59x    frame=21089 fps= 86 q=-0.0 size=N/A time=00:14:39.58 bitrate=N/A speed=3.59x    frame=21132 fps= 86 q=-0.0 size=N/A time=00:14:41.38 bitrate=N/A speed=3.59x    frame=21177 fps= 86 q=-0.0 size=N/A time=00:14:43.25 bitrate=N/A speed=3.59x    frame=21222 fps= 86 q=-0.0 size=N/A time=00:14:45.13 bitrate=N/A speed=3.59x    frame=21267 fps= 86 q=-0.0 size=N/A time=00:14:47.01 bitrate=N/A speed=3.59x    frame=21313 fps= 86 q=-0.0 size=N/A time=00:14:48.92 bitrate=N/A speed=3.59x    frame=21354 fps= 86 q=-0.0 size=N/A time=00:14:50.63 bitrate=N/A speed=3.59x    frame=21397 fps= 86 q=-0.0 size=N/A time=00:14:52.43 bitrate=N/A speed=3.59x    frame=21443 fps= 86 q=-0.0 size=N/A time=00:14:54.35 bitrate=N/A speed=3.59x    frame=21488 fps= 86 q=-0.0 size=N/A time=00:14:56.22 bitrate=N/A speed=3.59x    frame=21532 fps= 86 q=-0.0 size=N/A time=00:14:58.06 bitrate=N/A speed=3.59x    frame=21578 fps= 86 q=-0.0 size=N/A time=00:15:00.02 bitrate=N/A speed=3.59x    frame=21624 fps= 86 q=-0.0 size=N/A time=00:15:01.90 bitrate=N/A speed=3.59x    frame=21666 fps= 86 q=-0.0 size=N/A time=00:15:03.65 bitrate=N/A speed=3.59x    frame=21712 fps= 86 q=-0.0 size=N/A time=00:15:05.57 bitrate=N/A speed=3.59x    frame=21757 fps= 86 q=-0.0 size=N/A time=00:15:07.44 bitrate=N/A speed=3.59x    frame=21802 fps= 86 q=-0.0 size=N/A time=00:15:09.32 bitrate=N/A speed=3.59x    frame=21847 fps= 86 q=-0.0 size=N/A time=00:15:11.20 bitrate=N/A speed=3.59x    frame=21894 fps= 86 q=-0.0 size=N/A time=00:15:13.16 bitrate=N/A speed=3.59x    frame=21939 fps= 86 q=-0.0 size=N/A time=00:15:15.03 bitrate=N/A speed=3.59x    frame=21982 fps= 86 q=-0.0 size=N/A time=00:15:16.83 bitrate=N/A speed=3.59x    frame=22026 fps= 86 q=-0.0 size=N/A time=00:15:18.66 bitrate=N/A speed=3.59x    frame=22069 fps= 86 q=-0.0 size=N/A time=00:15:20.46 bitrate=N/A speed=3.59x    frame=22114 fps= 86 q=-0.0 size=N/A time=00:15:22.33 bitrate=N/A speed=3.59x    frame=22158 fps= 86 q=-0.0 size=N/A time=00:15:24.17 bitrate=N/A speed=3.59x    frame=22201 fps= 86 q=-0.0 size=N/A time=00:15:25.96 bitrate=N/A speed=3.59x    frame=22247 fps= 86 q=-0.0 size=N/A time=00:15:27.88 bitrate=N/A speed=3.59x    frame=22292 fps= 86 q=-0.0 size=N/A time=00:15:29.76 bitrate=N/A speed=3.59x    frame=22340 fps= 86 q=-0.0 size=N/A time=00:15:31.76 bitrate=N/A speed=3.59x    frame=22383 fps= 86 q=-0.0 size=N/A time=00:15:33.55 bitrate=N/A speed=3.59x    frame=22429 fps= 86 q=-0.0 size=N/A time=00:15:35.47 bitrate=N/A speed=3.59x    frame=22473 fps= 86 q=-0.0 size=N/A time=00:15:37.31 bitrate=N/A speed=3.59x    frame=22515 fps= 86 q=-0.0 size=N/A time=00:15:39.06 bitrate=N/A speed=3.59x    frame=22561 fps= 86 q=-0.0 size=N/A time=00:15:40.98 bitrate=N/A speed=3.59x    frame=22605 fps= 86 q=-0.0 size=N/A time=00:15:42.81 bitrate=N/A speed=3.59x    frame=22651 fps= 86 q=-0.0 size=N/A time=00:15:44.73 bitrate=N/A speed=3.59x    frame=22693 fps= 86 q=-0.0 size=N/A time=00:15:46.48 bitrate=N/A speed=3.59x    frame=22738 fps= 86 q=-0.0 size=N/A time=00:15:48.36 bitrate=N/A speed=3.59x    frame=22782 fps= 86 q=-0.0 size=N/A time=00:15:50.19 bitrate=N/A speed=3.59x    frame=22826 fps= 86 q=-0.0 size=N/A time=00:15:52.03 bitrate=N/A speed=3.59x    frame=22871 fps= 86 q=-0.0 size=N/A time=00:15:53.91 bitrate=N/A speed=3.59x    frame=22915 fps= 86 q=-0.0 size=N/A time=00:15:55.74 bitrate=N/A speed=3.59x    frame=22957 fps= 86 q=-0.0 size=N/A time=00:15:57.49 bitrate=N/A speed=3.59x    frame=22999 fps= 86 q=-0.0 size=N/A time=00:15:59.24 bitrate=N/A speed=3.59x    frame=23042 fps= 86 q=-0.0 size=N/A time=00:16:01.04 bitrate=N/A speed=3.59x    frame=23085 fps= 86 q=-0.0 size=N/A time=00:16:02.83 bitrate=N/A speed=3.59x    frame=23130 fps= 86 q=-0.0 size=N/A time=00:16:04.71 bitrate=N/A speed=3.59x    frame=23176 fps= 86 q=-0.0 size=N/A time=00:16:06.63 bitrate=N/A speed=3.59x    frame=23219 fps= 86 q=-0.0 size=N/A time=00:16:08.42 bitrate=N/A speed=3.59x    frame=23264 fps= 86 q=-0.0 size=N/A time=00:16:10.30 bitrate=N/A speed=3.59x    frame=23309 fps= 86 q=-0.0 size=N/A time=00:16:12.17 bitrate=N/A speed=3.59x    frame=23355 fps= 86 q=-0.0 size=N/A time=00:16:14.09 bitrate=N/A speed=3.59x    frame=23398 fps= 86 q=-0.0 size=N/A time=00:16:15.89 bitrate=N/A speed=3.59x    frame=23441 fps= 86 q=-0.0 size=N/A time=00:16:17.68 bitrate=N/A speed=3.59x    frame=23485 fps= 86 q=-0.0 size=N/A time=00:16:19.52 bitrate=N/A speed=3.59x    frame=23530 fps= 86 q=-0.0 size=N/A time=00:16:21.39 bitrate=N/A speed=3.59x    frame=23573 fps= 86 q=-0.0 size=N/A time=00:16:23.19 bitrate=N/A speed=3.59x    frame=23619 fps= 86 q=-0.0 size=N/A time=00:16:25.10 bitrate=N/A speed=3.59x    frame=23663 fps= 86 q=-0.0 size=N/A time=00:16:26.94 bitrate=N/A speed=3.59x    frame=23706 fps= 86 q=-0.0 size=N/A time=00:16:28.73 bitrate=N/A speed=3.59x    frame=23750 fps= 86 q=-0.0 size=N/A time=00:16:30.57 bitrate=N/A speed=3.59x    frame=23790 fps= 86 q=-0.0 size=N/A time=00:16:32.24 bitrate=N/A speed=3.59x    frame=23834 fps= 86 q=-0.0 size=N/A time=00:16:34.07 bitrate=N/A speed=3.59x    frame=23878 fps= 86 q=-0.0 size=N/A time=00:16:35.91 bitrate=N/A speed=3.59x    frame=23921 fps= 86 q=-0.0 size=N/A time=00:16:37.70 bitrate=N/A speed=3.59x    frame=23965 fps= 86 q=-0.0 size=N/A time=00:16:39.54 bitrate=N/A speed=3.59x    frame=24011 fps= 86 q=-0.0 size=N/A time=00:16:41.45 bitrate=N/A speed=3.59x    frame=24055 fps= 86 q=-0.0 size=N/A time=00:16:43.29 bitrate=N/A speed=3.59x    frame=24098 fps= 86 q=-0.0 size=N/A time=00:16:45.08 bitrate=N/A speed=3.59x    frame=24143 fps= 86 q=-0.0 size=N/A time=00:16:46.96 bitrate=N/A speed=3.59x    frame=24186 fps= 86 q=-0.0 size=N/A time=00:16:48.75 bitrate=N/A speed=3.59x    frame=24228 fps= 86 q=-0.0 size=N/A time=00:16:50.50 bitrate=N/A speed=3.59x    frame=24272 fps= 86 q=-0.0 size=N/A time=00:16:52.34 bitrate=N/A speed=3.59x    frame=24316 fps= 86 q=-0.0 size=N/A time=00:16:54.17 bitrate=N/A speed=3.59x    frame=24358 fps= 86 q=-0.0 size=N/A time=00:16:55.93 bitrate=N/A speed=3.59x    frame=24404 fps= 86 q=-0.0 size=N/A time=00:16:57.85 bitrate=N/A speed=3.59x    frame=24448 fps= 86 q=-0.0 size=N/A time=00:16:59.68 bitrate=N/A speed=3.59x    frame=24494 fps= 86 q=-0.0 size=N/A time=00:17:01.60 bitrate=N/A speed=3.59x    frame=24538 fps= 86 q=-0.0 size=N/A time=00:17:03.43 bitrate=N/A speed=3.59x    frame=24583 fps= 86 q=-0.0 size=N/A time=00:17:05.31 bitrate=N/A speed=3.59x    frame=24629 fps= 86 q=-0.0 size=N/A time=00:17:07.23 bitrate=N/A speed=3.59x    frame=24673 fps= 86 q=-0.0 size=N/A time=00:17:09.06 bitrate=N/A speed=3.59x    frame=24717 fps= 86 q=-0.0 size=N/A time=00:17:10.90 bitrate=N/A speed=3.59x    frame=24766 fps= 86 q=-0.0 size=N/A time=00:17:12.94 bitrate=N/A speed=3.59x    frame=24811 fps= 86 q=-0.0 size=N/A time=00:17:14.82 bitrate=N/A speed=3.59x    frame=24855 fps= 86 q=-0.0 size=N/A time=00:17:16.66 bitrate=N/A speed=3.59x    frame=24900 fps= 86 q=-0.0 size=N/A time=00:17:18.53 bitrate=N/A speed=3.59x    frame=24945 fps= 86 q=-0.0 size=N/A time=00:17:20.41 bitrate=N/A speed=3.59x    frame=24990 fps= 86 q=-0.0 size=N/A time=00:17:22.29 bitrate=N/A speed=3.59x    frame=25033 fps= 86 q=-0.0 size=N/A time=00:17:24.08 bitrate=N/A speed=3.59x    frame=25079 fps= 86 q=-0.0 size=N/A time=00:17:26.00 bitrate=N/A speed=3.59x    frame=25125 fps= 86 q=-0.0 size=N/A time=00:17:27.92 bitrate=N/A speed=3.59x    frame=25169 fps= 86 q=-0.0 size=N/A time=00:17:29.75 bitrate=N/A speed=3.59x    frame=25214 fps= 86 q=-0.0 size=N/A time=00:17:31.63 bitrate=N/A speed=3.59x    frame=25258 fps= 86 q=-0.0 size=N/A time=00:17:33.46 bitrate=N/A speed=3.59x    frame=25303 fps= 86 q=-0.0 size=N/A time=00:17:35.34 bitrate=N/A speed=3.59x    frame=25348 fps= 86 q=-0.0 size=N/A time=00:17:37.22 bitrate=N/A speed=3.59x    frame=25394 fps= 86 q=-0.0 size=N/A time=00:17:39.14 bitrate=N/A speed=3.59x    frame=25437 fps= 86 q=-0.0 size=N/A time=00:17:40.93 bitrate=N/A speed=3.59x    frame=25484 fps= 86 q=-0.0 size=N/A time=00:17:42.89 bitrate=N/A speed=3.59x    frame=25527 fps= 86 q=-0.0 size=N/A time=00:17:44.68 bitrate=N/A speed=3.59x    frame=25571 fps= 86 q=-0.0 size=N/A time=00:17:46.52 bitrate=N/A speed=3.59x    frame=25614 fps= 86 q=-0.0 size=N/A time=00:17:48.31 bitrate=N/A speed=3.59x    frame=25660 fps= 86 q=-0.0 size=N/A time=00:17:50.23 bitrate=N/A speed=3.59x    frame=25702 fps= 86 q=-0.0 size=N/A time=00:17:51.98 bitrate=N/A speed=3.59x    frame=25748 fps= 86 q=-0.0 size=N/A time=00:17:53.90 bitrate=N/A speed=3.59x    frame=25794 fps= 86 q=-0.0 size=N/A time=00:17:55.82 bitrate=N/A speed=3.59x    frame=25837 fps= 86 q=-0.0 size=N/A time=00:17:57.61 bitrate=N/A speed=3.59x    frame=25883 fps= 86 q=-0.0 size=N/A time=00:17:59.53 bitrate=N/A speed=3.59x    frame=25925 fps= 86 q=-0.0 size=N/A time=00:18:01.28 bitrate=N/A speed=3.59x    frame=25968 fps= 86 q=-0.0 size=N/A time=00:18:03.08 bitrate=N/A speed=3.59x    frame=26014 fps= 86 q=-0.0 size=N/A time=00:18:05.00 bitrate=N/A speed=3.59x    frame=26058 fps= 86 q=-0.0 size=N/A time=00:18:06.83 bitrate=N/A speed=3.59x    frame=26103 fps= 86 q=-0.0 size=N/A time=00:18:08.71 bitrate=N/A speed=3.59x    frame=26147 fps= 86 q=-0.0 size=N/A time=00:18:10.54 bitrate=N/A speed=3.59x    frame=26190 fps= 86 q=-0.0 size=N/A time=00:18:12.34 bitrate=N/A speed=3.59x    frame=26234 fps= 86 q=-0.0 size=N/A time=00:18:14.17 bitrate=N/A speed=3.59x    frame=26277 fps= 86 q=-0.0 size=N/A time=00:18:15.96 bitrate=N/A speed=3.59x    frame=26319 fps= 86 q=-0.0 size=N/A time=00:18:17.72 bitrate=N/A speed=3.59x    frame=26365 fps= 86 q=-0.0 size=N/A time=00:18:19.64 bitrate=N/A speed=3.59x    frame=26411 fps= 86 q=-0.0 size=N/A time=00:18:21.55 bitrate=N/A speed=3.59x    frame=26456 fps= 86 q=-0.0 size=N/A time=00:18:23.43 bitrate=N/A speed=3.59x    frame=26498 fps= 86 q=-0.0 size=N/A time=00:18:25.18 bitrate=N/A speed=3.59x    frame=26543 fps= 86 q=-0.0 size=N/A time=00:18:27.06 bitrate=N/A speed=3.59x    frame=26586 fps= 86 q=-0.0 size=N/A time=00:18:28.85 bitrate=N/A speed=3.59x    frame=26629 fps= 86 q=-0.0 size=N/A time=00:18:30.65 bitrate=N/A speed=3.59x    frame=26674 fps= 86 q=-0.0 size=N/A time=00:18:32.52 bitrate=N/A speed=3.59x    frame=26716 fps= 86 q=-0.0 size=N/A time=00:18:34.27 bitrate=N/A speed=3.59x    frame=26760 fps= 86 q=-0.0 size=N/A time=00:18:36.11 bitrate=N/A speed=3.59x    frame=26804 fps= 86 q=-0.0 size=N/A time=00:18:37.95 bitrate=N/A speed=3.59x    frame=26849 fps= 86 q=-0.0 size=N/A time=00:18:39.82 bitrate=N/A speed=3.59x    frame=26892 fps= 86 q=-0.0 size=N/A time=00:18:41.62 bitrate=N/A speed=3.59x    frame=26938 fps= 86 q=-0.0 size=N/A time=00:18:43.53 bitrate=N/A speed=3.59x    frame=26981 fps= 86 q=-0.0 size=N/A time=00:18:45.33 bitrate=N/A speed=3.59x    frame=27026 fps= 86 q=-0.0 size=N/A time=00:18:47.20 bitrate=N/A speed=3.59x    frame=27070 fps= 86 q=-0.0 size=N/A time=00:18:49.04 bitrate=N/A speed=3.59x    frame=27113 fps= 86 q=-0.0 size=N/A time=00:18:50.83 bitrate=N/A speed=3.59x    frame=27158 fps= 86 q=-0.0 size=N/A time=00:18:52.71 bitrate=N/A speed=3.59x    frame=27201 fps= 86 q=-0.0 size=N/A time=00:18:54.50 bitrate=N/A speed=3.59x    frame=27243 fps= 86 q=-0.0 size=N/A time=00:18:56.26 bitrate=N/A speed=3.59x    frame=27288 fps= 86 q=-0.0 size=N/A time=00:18:58.13 bitrate=N/A speed=3.59x    frame=27335 fps= 86 q=-0.0 size=N/A time=00:19:00.09 bitrate=N/A speed=3.59x    frame=27378 fps= 86 q=-0.0 size=N/A time=00:19:01.89 bitrate=N/A speed=3.59x    frame=27422 fps= 86 q=-0.0 size=N/A time=00:19:03.72 bitrate=N/A speed=3.59x    frame=27466 fps= 86 q=-0.0 size=N/A time=00:19:05.56 bitrate=N/A speed=3.59x    frame=27509 fps= 86 q=-0.0 size=N/A time=00:19:07.35 bitrate=N/A speed=3.59x    frame=27552 fps= 86 q=-0.0 size=N/A time=00:19:09.14 bitrate=N/A speed=3.59x    frame=27598 fps= 86 q=-0.0 size=N/A time=00:19:11.06 bitrate=N/A speed=3.59x    frame=27641 fps= 86 q=-0.0 size=N/A time=00:19:12.86 bitrate=N/A speed=3.59x    frame=27684 fps= 86 q=-0.0 size=N/A time=00:19:14.65 bitrate=N/A speed=3.59x    frame=27730 fps= 86 q=-0.0 size=N/A time=00:19:16.57 bitrate=N/A speed=3.59x    frame=27775 fps= 86 q=-0.0 size=N/A time=00:19:18.44 bitrate=N/A speed=3.59x    frame=27819 fps= 86 q=-0.0 size=N/A time=00:19:20.28 bitrate=N/A speed=3.59x    frame=27864 fps= 86 q=-0.0 size=N/A time=00:19:22.16 bitrate=N/A speed=3.59x    frame=27910 fps= 86 q=-0.0 size=N/A time=00:19:24.07 bitrate=N/A speed=3.59x    frame=27953 fps= 86 q=-0.0 size=N/A time=00:19:25.87 bitrate=N/A speed=3.59x    frame=27997 fps= 86 q=-0.0 size=N/A time=00:19:27.70 bitrate=N/A speed=3.59x    frame=28042 fps= 86 q=-0.0 size=N/A time=00:19:29.58 bitrate=N/A speed=3.59x    frame=28089 fps= 86 q=-0.0 size=N/A time=00:19:31.54 bitrate=N/A speed=3.59x    frame=28129 fps= 86 q=-0.0 size=N/A time=00:19:33.21 bitrate=N/A speed=3.59x    frame=28172 fps= 86 q=-0.0 size=N/A time=00:19:35.00 bitrate=N/A speed=3.59x    frame=28213 fps= 86 q=-0.0 size=N/A time=00:19:36.71 bitrate=N/A speed=3.59x    frame=28253 fps= 86 q=-0.0 size=N/A time=00:19:38.38 bitrate=N/A speed=3.59x    frame=28300 fps= 86 q=-0.0 size=N/A time=00:19:40.34 bitrate=N/A speed=3.59x    frame=28345 fps= 86 q=-0.0 size=N/A time=00:19:42.22 bitrate=N/A speed=3.59x    frame=28388 fps= 86 q=-0.0 size=N/A time=00:19:44.01 bitrate=N/A speed=3.59x    frame=28433 fps= 86 q=-0.0 size=N/A time=00:19:45.89 bitrate=N/A speed=3.59x    frame=28477 fps= 86 q=-0.0 size=N/A time=00:19:47.72 bitrate=N/A speed=3.59x    frame=28523 fps= 86 q=-0.0 size=N/A time=00:19:49.64 bitrate=N/A speed=3.59x    frame=28566 fps= 86 q=-0.0 size=N/A time=00:19:51.44 bitrate=N/A speed=3.59x    frame=28613 fps= 86 q=-0.0 size=N/A time=00:19:53.40 bitrate=N/A speed=3.59x    frame=28655 fps= 86 q=-0.0 size=N/A time=00:19:55.15 bitrate=N/A speed=3.59x    frame=28701 fps= 86 q=-0.0 size=N/A time=00:19:57.07 bitrate=N/A speed=3.59x    frame=28745 fps= 86 q=-0.0 size=N/A time=00:19:58.90 bitrate=N/A speed=3.59x    frame=28788 fps= 86 q=-0.0 size=N/A time=00:20:00.69 bitrate=N/A speed=3.59x    frame=28834 fps= 86 q=-0.0 size=N/A time=00:20:02.61 bitrate=N/A speed=3.59x    frame=28877 fps= 86 q=-0.0 size=N/A time=00:20:04.41 bitrate=N/A speed=3.59x    frame=28920 fps= 86 q=-0.0 size=N/A time=00:20:06.20 bitrate=N/A speed=3.59x    frame=28964 fps= 86 q=-0.0 size=N/A time=00:20:08.04 bitrate=N/A speed=3.59x    frame=29007 fps= 86 q=-0.0 size=N/A time=00:20:09.83 bitrate=N/A speed=3.59x    frame=29049 fps= 86 q=-0.0 size=N/A time=00:20:11.58 bitrate=N/A speed=3.59x    frame=29095 fps= 86 q=-0.0 size=N/A time=00:20:13.50 bitrate=N/A speed=3.59x    frame=29139 fps= 86 q=-0.0 size=N/A time=00:20:15.33 bitrate=N/A speed=3.59x    frame=29183 fps= 86 q=-0.0 size=N/A time=00:20:17.17 bitrate=N/A speed=3.59x    frame=29226 fps= 86 q=-0.0 size=N/A time=00:20:18.96 bitrate=N/A speed=3.59x    frame=29270 fps= 86 q=-0.0 size=N/A time=00:20:20.80 bitrate=N/A speed=3.59x    frame=29316 fps= 86 q=-0.0 size=N/A time=00:20:22.72 bitrate=N/A speed=3.59x    frame=29359 fps= 86 q=-0.0 size=N/A time=00:20:24.51 bitrate=N/A speed=3.59x    frame=29404 fps= 86 q=-0.0 size=N/A time=00:20:26.39 bitrate=N/A speed=3.59x    frame=29448 fps= 86 q=-0.0 size=N/A time=00:20:28.22 bitrate=N/A speed=3.59x    frame=29492 fps= 86 q=-0.0 size=N/A time=00:20:30.06 bitrate=N/A speed=3.59x    frame=29535 fps= 86 q=-0.0 size=N/A time=00:20:31.85 bitrate=N/A speed=3.59x    frame=29577 fps= 86 q=-0.0 size=N/A time=00:20:33.60 bitrate=N/A speed=3.58x    frame=29623 fps= 86 q=-0.0 size=N/A time=00:20:35.52 bitrate=N/A speed=3.58x    frame=29668 fps= 86 q=-0.0 size=N/A time=00:20:37.40 bitrate=N/A speed=3.59x    frame=29714 fps= 86 q=-0.0 size=N/A time=00:20:39.32 bitrate=N/A speed=3.59x    frame=29760 fps= 86 q=-0.0 size=N/A time=00:20:41.24 bitrate=N/A speed=3.59x    frame=29804 fps= 86 q=-0.0 size=N/A time=00:20:43.07 bitrate=N/A speed=3.59x    frame=29851 fps= 86 q=-0.0 size=N/A time=00:20:45.03 bitrate=N/A speed=3.59x    frame=29896 fps= 86 q=-0.0 size=N/A time=00:20:46.91 bitrate=N/A speed=3.59x    frame=29942 fps= 86 q=-0.0 size=N/A time=00:20:48.83 bitrate=N/A speed=3.59x    frame=29987 fps= 86 q=-0.0 size=N/A time=00:20:50.70 bitrate=N/A speed=3.59x    frame=30031 fps= 86 q=-0.0 size=N/A time=00:20:52.54 bitrate=N/A speed=3.59x    frame=30073 fps= 86 q=-0.0 size=N/A time=00:20:54.29 bitrate=N/A speed=3.59x    frame=30117 fps= 86 q=-0.0 size=N/A time=00:20:56.12 bitrate=N/A speed=3.59x    frame=30160 fps= 86 q=-0.0 size=N/A time=00:20:57.92 bitrate=N/A speed=3.59x    frame=30204 fps= 86 q=-0.0 size=N/A time=00:20:59.75 bitrate=N/A speed=3.59x    frame=30250 fps= 86 q=-0.0 size=N/A time=00:21:01.67 bitrate=N/A speed=3.59x    frame=30294 fps= 86 q=-0.0 size=N/A time=00:21:03.51 bitrate=N/A speed=3.59x    frame=30338 fps= 86 q=-0.0 size=N/A time=00:21:05.34 bitrate=N/A speed=3.59x    frame=30383 fps= 86 q=-0.0 size=N/A time=00:21:07.22 bitrate=N/A speed=3.59x    frame=30427 fps= 86 q=-0.0 size=N/A time=00:21:09.05 bitrate=N/A speed=3.59x    frame=30471 fps= 86 q=-0.0 size=N/A time=00:21:10.89 bitrate=N/A speed=3.59x    frame=30517 fps= 86 q=-0.0 size=N/A time=00:21:12.81 bitrate=N/A speed=3.59x    frame=30563 fps= 86 q=-0.0 size=N/A time=00:21:14.73 bitrate=N/A speed=3.59x    frame=30606 fps= 86 q=-0.0 size=N/A time=00:21:16.52 bitrate=N/A speed=3.59x    frame=30651 fps= 86 q=-0.0 size=N/A time=00:21:18.40 bitrate=N/A speed=3.59x    frame=30694 fps= 86 q=-0.0 size=N/A time=00:21:20.19 bitrate=N/A speed=3.59x    frame=30740 fps= 86 q=-0.0 size=N/A time=00:21:22.11 bitrate=N/A speed=3.59x    frame=30785 fps= 86 q=-0.0 size=N/A time=00:21:23.99 bitrate=N/A speed=3.59x    frame=30827 fps= 86 q=-0.0 size=N/A time=00:21:25.74 bitrate=N/A speed=3.59x    frame=30874 fps= 86 q=-0.0 size=N/A time=00:21:27.70 bitrate=N/A speed=3.59x    frame=30918 fps= 86 q=-0.0 size=N/A time=00:21:29.53 bitrate=N/A speed=3.59x    frame=30964 fps= 86 q=-0.0 size=N/A time=00:21:31.45 bitrate=N/A speed=3.59x    frame=31007 fps= 86 q=-0.0 size=N/A time=00:21:33.25 bitrate=N/A speed=3.59x    frame=31050 fps= 86 q=-0.0 size=N/A time=00:21:35.04 bitrate=N/A speed=3.59x    frame=31093 fps= 86 q=-0.0 size=N/A time=00:21:36.83 bitrate=N/A speed=3.59x    frame=31139 fps= 86 q=-0.0 size=N/A time=00:21:38.75 bitrate=N/A speed=3.59x    frame=31182 fps= 86 q=-0.0 size=N/A time=00:21:40.54 bitrate=N/A speed=3.59x    frame=31227 fps= 86 q=-0.0 size=N/A time=00:21:42.42 bitrate=N/A speed=3.59x    frame=31269 fps= 86 q=-0.0 size=N/A time=00:21:44.17 bitrate=N/A speed=3.59x    frame=31314 fps= 86 q=-0.0 size=N/A time=00:21:46.05 bitrate=N/A speed=3.59x    frame=31357 fps= 86 q=-0.0 size=N/A time=00:21:47.84 bitrate=N/A speed=3.59x    frame=31403 fps= 86 q=-0.0 size=N/A time=00:21:49.76 bitrate=N/A speed=3.59x    frame=31449 fps= 86 q=-0.0 size=N/A time=00:21:51.68 bitrate=N/A speed=3.59x    frame=31491 fps= 86 q=-0.0 size=N/A time=00:21:53.43 bitrate=N/A speed=3.59x    frame=31535 fps= 86 q=-0.0 size=N/A time=00:21:55.27 bitrate=N/A speed=3.59x    frame=31578 fps= 86 q=-0.0 size=N/A time=00:21:57.06 bitrate=N/A speed=3.59x    frame=31622 fps= 86 q=-0.0 size=N/A time=00:21:58.90 bitrate=N/A speed=3.59x    frame=31666 fps= 86 q=-0.0 size=N/A time=00:22:00.73 bitrate=N/A speed=3.59x    frame=31711 fps= 86 q=-0.0 size=N/A time=00:22:02.61 bitrate=N/A speed=3.59x    frame=31754 fps= 86 q=-0.0 size=N/A time=00:22:04.40 bitrate=N/A speed=3.58x    frame=31798 fps= 86 q=-0.0 size=N/A time=00:22:06.24 bitrate=N/A speed=3.59x    frame=31840 fps= 86 q=-0.0 size=N/A time=00:22:07.99 bitrate=N/A speed=3.58x    frame=31885 fps= 86 q=-0.0 size=N/A time=00:22:09.87 bitrate=N/A speed=3.58x    frame=31929 fps= 86 q=-0.0 size=N/A time=00:22:11.70 bitrate=N/A speed=3.58x    frame=31974 fps= 86 q=-0.0 size=N/A time=00:22:13.58 bitrate=N/A speed=3.58x    frame=32019 fps= 86 q=-0.0 size=N/A time=00:22:15.45 bitrate=N/A speed=3.58x    frame=32064 fps= 86 q=-0.0 size=N/A time=00:22:17.33 bitrate=N/A speed=3.58x    frame=32107 fps= 86 q=-0.0 size=N/A time=00:22:19.12 bitrate=N/A speed=3.58x    frame=32150 fps= 86 q=-0.0 size=N/A time=00:22:20.92 bitrate=N/A speed=3.58x    frame=32196 fps= 86 q=-0.0 size=N/A time=00:22:22.84 bitrate=N/A speed=3.58x    frame=32239 fps= 86 q=-0.0 size=N/A time=00:22:24.63 bitrate=N/A speed=3.58x    frame=32283 fps= 86 q=-0.0 size=N/A time=00:22:26.47 bitrate=N/A speed=3.58x    frame=32327 fps= 86 q=-0.0 size=N/A time=00:22:28.30 bitrate=N/A speed=3.58x    frame=32370 fps= 86 q=-0.0 size=N/A time=00:22:30.09 bitrate=N/A speed=3.58x    frame=32415 fps= 86 q=-0.0 size=N/A time=00:22:31.97 bitrate=N/A speed=3.58x    frame=32459 fps= 86 q=-0.0 size=N/A time=00:22:33.81 bitrate=N/A speed=3.58x    frame=32502 fps= 86 q=-0.0 size=N/A time=00:22:35.60 bitrate=N/A speed=3.58x    frame=32543 fps= 86 q=-0.0 size=N/A time=00:22:37.31 bitrate=N/A speed=3.58x    frame=32587 fps= 86 q=-0.0 size=N/A time=00:22:39.14 bitrate=N/A speed=3.58x    frame=32629 fps= 86 q=-0.0 size=N/A time=00:22:40.90 bitrate=N/A speed=3.58x    frame=32674 fps= 86 q=-0.0 size=N/A time=00:22:42.77 bitrate=N/A speed=3.58x    frame=32718 fps= 86 q=-0.0 size=N/A time=00:22:44.61 bitrate=N/A speed=3.58x    frame=32760 fps= 86 q=-0.0 size=N/A time=00:22:46.36 bitrate=N/A speed=3.58x    frame=32804 fps= 86 q=-0.0 size=N/A time=00:22:48.20 bitrate=N/A speed=3.58x    frame=32845 fps= 86 q=-0.0 size=N/A time=00:22:49.91 bitrate=N/A speed=3.58x    frame=32889 fps= 86 q=-0.0 size=N/A time=00:22:51.74 bitrate=N/A speed=3.58x    frame=32933 fps= 86 q=-0.0 size=N/A time=00:22:53.58 bitrate=N/A speed=3.58x    frame=32978 fps= 86 q=-0.0 size=N/A time=00:22:55.45 bitrate=N/A speed=3.58x    frame=33024 fps= 86 q=-0.0 size=N/A time=00:22:57.37 bitrate=N/A speed=3.58x    frame=33070 fps= 86 q=-0.0 size=N/A time=00:22:59.29 bitrate=N/A speed=3.58x    frame=33112 fps= 86 q=-0.0 size=N/A time=00:23:01.04 bitrate=N/A speed=3.58x    frame=33157 fps= 86 q=-0.0 size=N/A time=00:23:02.92 bitrate=N/A speed=3.58x    frame=33202 fps= 86 q=-0.0 size=N/A time=00:23:04.80 bitrate=N/A speed=3.58x    frame=33244 fps= 86 q=-0.0 size=N/A time=00:23:06.55 bitrate=N/A speed=3.58x    frame=33287 fps= 86 q=-0.0 size=N/A time=00:23:08.34 bitrate=N/A speed=3.58x    frame=33328 fps= 86 q=-0.0 size=N/A time=00:23:10.05 bitrate=N/A speed=3.58x    frame=33371 fps= 86 q=-0.0 size=N/A time=00:23:11.84 bitrate=N/A speed=3.58x    frame=33415 fps= 86 q=-0.0 size=N/A time=00:23:13.68 bitrate=N/A speed=3.58x    frame=33460 fps= 86 q=-0.0 size=N/A time=00:23:15.56 bitrate=N/A speed=3.58x    frame=33505 fps= 86 q=-0.0 size=N/A time=00:23:17.43 bitrate=N/A speed=3.58x    frame=33549 fps= 86 q=-0.0 size=N/A time=00:23:19.27 bitrate=N/A speed=3.58x    frame=33592 fps= 86 q=-0.0 size=N/A time=00:23:21.06 bitrate=N/A speed=3.58x    frame=33636 fps= 86 q=-0.0 size=N/A time=00:23:22.90 bitrate=N/A speed=3.58x    frame=33680 fps= 86 q=-0.0 size=N/A time=00:23:24.73 bitrate=N/A speed=3.58x    frame=33725 fps= 86 q=-0.0 size=N/A time=00:23:26.61 bitrate=N/A speed=3.58x    frame=33766 fps= 86 q=-0.0 size=N/A time=00:23:28.32 bitrate=N/A speed=3.58x    frame=33810 fps= 86 q=-0.0 size=N/A time=00:23:30.15 bitrate=N/A speed=3.58x    frame=33854 fps= 86 q=-0.0 size=N/A time=00:23:31.99 bitrate=N/A speed=3.58x    frame=33900 fps= 86 q=-0.0 size=N/A time=00:23:33.91 bitrate=N/A speed=3.58x    frame=33943 fps= 86 q=-0.0 size=N/A time=00:23:35.70 bitrate=N/A speed=3.58x    frame=33990 fps= 86 q=-0.0 size=N/A time=00:23:37.66 bitrate=N/A speed=3.58x    frame=34033 fps= 86 q=-0.0 size=N/A time=00:23:39.45 bitrate=N/A speed=3.58x    frame=34074 fps= 86 q=-0.0 size=N/A time=00:23:41.16 bitrate=N/A speed=3.58x    frame=34119 fps= 86 q=-0.0 size=N/A time=00:23:43.04 bitrate=N/A speed=3.58x    frame=34165 fps= 86 q=-0.0 size=N/A time=00:23:44.96 bitrate=N/A speed=3.58x    [Parsed_libvmaf_10 @ 000001cfe1cbe680] VMAF score: 95.534444
[out#0/null @ 000001cfe0cf4840] video:14696KiB audio:267516KiB subtitle:0KiB other streams:0KiB global headers:0KiB muxing overhead: unknown
frame=34201 fps= 86 q=-0.0 Lsize=N/A time=00:23:46.46 bitrate=N/A speed=3.57x    
